<?xml version="1.0" encoding="UTF-8"?>
<!--Generator: Apple Native CoreSVG 326-->
<!DOCTYPE svg
PUBLIC "-//W3C//DTD SVG 1.1//EN"
       "http://www.w3.org/Graphics/SVG/1.1/DTD/svg11.dtd">
<svg version="1.1" xmlns="http://www.w3.org/2000/svg" xmlns:xlink="http://www.w3.org/1999/xlink" viewBox="0 0 130.323 172.32">
 <g>
  <rect height="172.32" opacity="0" width="130.323" x="0" y="0"/>
  <path d="M0 143.112C0 157.259 7.33067 164.527 21.5578 164.527L108.765 164.527C123.033 164.527 130.323 157.123 130.323 143.112L130.323 67.2867C130.323 53.2354 123.033 45.832 108.765 45.832L21.5578 45.832C7.33067 45.832 0 53.1404 0 67.2867ZM65.1615 106.881C63.0434 106.881 61.2041 105.123 61.2041 103.005L61.2041 22.0108L61.5053 11.1504L56.3314 16.4678L42.1231 31.0623C41.4035 31.8809 40.3061 32.3174 39.3481 32.3174C37.3066 32.3174 35.809 30.7834 35.809 28.7643C35.809 27.7436 36.2092 26.9432 36.9691 26.165L62.3016 1.28145C63.2637 0.319337 64.1813 0 65.1615 0C66.1418 0 67.0594 0.319337 68.0215 1.28145L93.3176 26.165C94.0371 26.9432 94.4778 27.7436 94.4778 28.7643C94.4778 30.7834 92.8811 32.3174 90.8578 32.3174C89.918 32.3174 88.8609 31.8809 88.1232 31.0623L73.9553 16.4678L68.8178 11.209L69.119 22.0108L69.119 103.005C69.119 105.123 67.2797 106.881 65.1615 106.881Z" fill="black"/>
 </g>
</svg>
