<?xml version="1.0" encoding="UTF-8"?>
<!--Generator: Apple Native CoreSVG 326-->
<!DOCTYPE svg
PUBLIC "-//W3C//DTD SVG 1.1//EN"
       "http://www.w3.org/Graphics/SVG/1.1/DTD/svg11.dtd">
<svg version="1.1" xmlns="http://www.w3.org/2000/svg" xmlns:xlink="http://www.w3.org/1999/xlink" viewBox="0 0 176.467 135.792">
 <g>
  <rect height="135.792" opacity="0" width="176.467" x="0" y="0"/>
  <path d="M176.467 21.4547L176.467 114.342C176.467 128.353 169.137 135.756 154.869 135.756L21.5578 135.756C7.33067 135.756 0 128.506 0 114.342L0 21.4547C0 7.29024 7.33067 0 21.5578 0L154.869 0C169.137 0 176.467 7.40332 176.467 21.4547ZM21.774 7.93713C14.9347 7.93713 10.5232 10.6717 8.78658 15.968L6.83438 15.968C5.29688 15.968 4.05235 17.2125 4.05235 18.7319L4.05235 117.006C4.05235 118.543 5.33731 119.788 6.85665 119.788L8.78174 119.788C10.5142 125.102 14.9277 127.819 21.774 127.819L154.693 127.819C161.338 127.819 165.832 125.102 167.615 119.788L169.686 119.788C171.205 119.788 172.45 118.543 172.45 117.006L172.45 18.7319C172.45 17.2125 171.205 15.968 169.686 15.968L167.611 15.968C165.823 10.6717 161.331 7.93713 154.693 7.93713Z" fill="black" fill-opacity="0.85"/>
  <path d="M6.85665 119.788L105.195 119.788C110.613 119.788 113.559 116.802 113.559 111.366L113.559 24.4125C113.559 18.9539 110.613 15.968 105.195 15.968L6.83438 15.968C5.29688 15.968 4.05235 17.2125 4.05235 18.7319L4.05235 117.006C4.05235 118.543 5.33731 119.788 6.85665 119.788ZM129.931 119.788L169.686 119.788C171.205 119.788 172.45 118.543 172.45 117.006L172.45 18.7319C172.45 17.2125 171.205 15.968 169.686 15.968L129.931 15.968C124.553 15.968 121.567 18.9539 121.567 24.4125L121.567 111.366C121.567 116.802 124.553 119.788 129.931 119.788Z" fill="black" fill-opacity="0.85"/>
 </g>
</svg>
