<?xml version="1.0" encoding="UTF-8"?>
<!--Generator: Apple Native CoreSVG 326-->
<!DOCTYPE svg
PUBLIC "-//W3C//DTD SVG 1.1//EN"
       "http://www.w3.org/Graphics/SVG/1.1/DTD/svg11.dtd">
<svg version="1.1" xmlns="http://www.w3.org/2000/svg" xmlns:xlink="http://www.w3.org/1999/xlink" viewBox="0 0 176.467 135.792">
 <g>
  <rect height="135.792" opacity="0" width="176.467" x="0" y="0"/>
  <path d="M176.467 21.4547L176.467 114.342C176.467 128.353 169.137 135.756 154.869 135.756L21.5578 135.756C7.33067 135.756 0 128.506 0 114.342L0 21.4547C0 7.29024 7.33067 0 21.5578 0L154.869 0C169.137 0 176.467 7.40332 176.467 21.4547ZM108.704 63.9281C106.178 63.9281 104.577 65.26 104.577 68.11L104.577 104.373C104.577 106.829 106.075 108.47 108.296 108.47C110.612 108.47 112.11 106.932 112.11 104.454L112.11 88.8902L111.558 75.9194L120.599 85.4959L150.51 115.429C151.27 116.149 152.228 116.626 153.541 116.626C155.839 116.626 157.337 115.128 157.337 112.789C157.337 111.696 156.838 110.698 156.06 109.938L126.09 80.0086L116.451 70.8504L127.433 71.4246L145.044 71.4246C147.54 71.4246 149.141 69.927 149.141 67.6289C149.141 65.3894 147.581 63.9281 145.125 63.9281Z" fill="black" fill-opacity="0.85"/>
 </g>
</svg>
