<?xml version="1.0" encoding="UTF-8"?>
<!--Generator: Apple Native CoreSVG 326-->
<!DOCTYPE svg
PUBLIC "-//W3C//DTD SVG 1.1//EN"
       "http://www.w3.org/Graphics/SVG/1.1/DTD/svg11.dtd">
<svg version="1.1" xmlns="http://www.w3.org/2000/svg" xmlns:xlink="http://www.w3.org/1999/xlink" viewBox="0 0 113.555 161.821">
 <g>
  <rect height="161.821" opacity="0" width="113.555" x="0" y="0"/>
  <path d="M7.11035 80.7896L14.5664 80.7896L14.5664 19.3611C14.5664 11.3572 18.5121 7.38517 26.8031 7.38517L86.7117 7.38517C95.0432 7.38517 99.0111 11.3572 99.0111 19.3611L99.0111 25.5234L106.445 25.5234L106.445 18.6029C106.445 6.99551 99.5484 0 87.4295 0L26.0854 0C13.9664 0 7.06992 6.99551 7.06992 18.6029ZM26.1076 160.242L87.4699 160.242C99.5889 160.242 106.467 153.246 106.467 141.657L106.467 79.452L99.0516 79.452L99.0516 140.88C99.0516 148.884 95.0836 152.856 86.734 152.856L26.8436 152.856C18.5526 152.856 14.5664 148.884 14.5664 140.88L14.5664 134.718L7.11035 134.718L7.11035 141.657C7.11035 153.246 14.0068 160.242 26.1076 160.242Z" fill="black" fill-opacity="0.85"/>
  <path d="M78.9065 33.3779C76.6793 33.3779 75.5455 35.0514 75.5455 36.7248C75.5455 38.4164 76.7379 40.1666 79.0096 40.1666L89.008 40.1666L102.373 39.8473L92.0531 49.7889L78.7594 63.0422C77.9227 63.8789 77.6619 64.6975 77.6619 65.5746C77.6619 67.5715 79.4971 69.3299 81.4576 69.3299C82.3125 69.3299 83.1897 69.0328 83.9496 68.2729L97.2211 54.9791L107.086 44.6959L106.748 57.8344L106.748 68.7821C106.748 71.0537 108.517 72.2461 110.231 72.2461C111.904 72.2461 113.555 71.1528 113.555 68.8852L113.555 37.5334C113.555 34.9119 112.094 33.3779 109.309 33.3779ZM4.2463 126.864L34.6893 126.864C36.9164 126.864 38.0502 125.19 38.0502 123.517C38.0502 121.785 36.8397 120.075 34.5861 120.075L24.5473 120.075L11.1826 120.394L21.5022 110.453L34.8363 97.1994C35.6326 96.4031 35.9338 95.5623 35.9338 94.667C35.9338 92.6701 34.0582 90.9117 32.0795 90.9117C31.2428 90.9117 30.3656 91.2088 29.6461 91.9687L16.3342 105.303L6.46935 115.546L6.78869 102.407L6.78869 91.4596C6.78869 89.1879 5.03849 87.9955 3.32462 87.9955C1.67344 87.9955 0 89.0889 0 91.3564L0 122.708C0 125.33 1.46133 126.864 4.2463 126.864Z" fill="black" fill-opacity="0.85"/>
 </g>
</svg>
